<?xml version="1.0" encoding="UTF-8"?>
<svg id="Layer_1" data-name="Layer 1" xmlns="http://www.w3.org/2000/svg" viewBox="0 0 680 324.69">
  <defs>
    <style>
      .cls-1 {
        fill: #fffef8;
      }
    </style>
  </defs>
  <path class="cls-1" d="M173.94,101.46L50.14,35.66c-7.09-3.77-15.65,1.37-15.65,9.4v82.05c0,1.97,1.09,3.78,2.83,4.7l60.11,30.53,76.51-42.08c7.53-4,7.53-14.8,0-18.81Z"/>
  <path class="cls-1" d="M173.94,204.43l-76.51-42.08-60.11,30.53c-1.74.92-2.83,2.73-2.83,4.7v82.05c0,8.03,8.55,13.17,15.65,9.4l123.8-65.8c7.53-4,7.53-14.8,0-18.81Z"/>
  <path class="cls-1" d="M257.36,179.19c6.71,9.86,18.99,17.84,33.09,17.84,27.53,0,47.79-22.51,47.79-50.21s-20.26-50.42-47.79-50.42c-13.76,0-25.7,7.6-32.54,16.95v-48.04h-15.8v129.31h15.25v-15.42ZM290.45,111.14c17.67,0,31.99,16.02,31.99,35.9s-14.15,35.51-31.99,35.51-32.54-16.01-32.54-35.51,14.87-35.9,32.54-35.9Z"/>
  <path class="cls-1" d="M429.84,179.1v-52.85c0-17.88-14.1-29.78-38.7-29.78s-40.4,12.45-41.5,31.61h16.35c1.7-13.93,14.91-17.12,24.94-17.12,16.19,0,23.45,5.78,23.45,13.38s-7.6,11.89-31.05,13c-24.76,1.27-39.08,9.3-39.08,29.95s17.67,29.57,37.38,29.57c14.87,0,26.04-4.84,32.92-13.21l.04.13c.17,4.46,1.1,8.16,2.42,10.96h15.63c-1.49-3.74-2.8-10.79-2.8-15.63ZM414.42,157.78c-.38,17.33-15.84,24.38-32.2,24.38-12.28,0-22.34-4.46-22.34-14.87,0-8.03,4.63-15.25,25.49-16.57,11.34-.72,22.68-2.04,29.01-7.6l.04-.04v14.7Z"/>
  <path class="cls-1" d="M484.75,136.55c-18.78-2.97-24.17-5.39-24.17-12.28,0-7.43,9.09-13.38,21.75-13.38,11.72,0,20.81,5.23,23.07,15.46h16.01c-2.08-18.78-16.95-29.95-39.08-29.95-25.7,0-37.6,14.7-37.6,28.46,0,18.05,14.1,23.62,37.38,26.97,23.45,3.14,26.04,8.16,26.04,14.87,0,8.37-9.13,15.63-24,15.63-13.81,0-24.77-6.88-26.81-18.05h-16.01c2.59,20.31,19.54,32.75,42.78,32.75h.08c22.9,0,39.25-12.11,39.25-31.27,0-21.79-17.5-25.87-38.7-29.23Z"/>
  <rect class="cls-1" x="535.48" y="65.53" width="15.8" height="18.78"/>
  <rect class="cls-1" x="535.48" y="98.83" width="15.8" height="95.79"/>
  <path class="cls-1" d="M606.21,182.34c-13.76,0-24.77-6.88-26.81-18.05h-16.01c2.59,20.31,19.54,32.75,42.78,32.75h.09c22.89,0,39.25-12.11,39.25-31.27,0-21.79-17.5-25.87-38.7-29.23-18.78-2.97-24.17-5.39-24.17-12.28,0-7.43,9.09-13.38,21.75-13.38,11.73,0,20.82,5.23,23.07,15.46h16.01c-2.08-18.78-16.95-29.95-39.08-29.95-25.7,0-37.59,14.7-37.59,28.46,0,18.05,14.15,23.62,37.38,26.97,23.45,3.14,26.04,8.16,26.04,14.87,0,8.37-9.13,15.63-24,15.63Z"/>
  <polygon class="cls-1" points="242.01 230.75 251.95 230.75 251.95 256.22 258.46 256.22 258.46 230.75 268.41 230.75 268.41 225.76 242.01 225.76 242.01 230.75"/>
  <polygon class="cls-1" points="285.99 243.1 300.67 243.1 300.67 238.19 285.99 238.19 285.99 230.75 301.64 230.75 301.64 225.76 285.99 225.76 282.52 225.76 279.47 225.76 279.47 256.22 282.52 256.22 285.99 256.22 302.15 256.22 302.15 251.22 285.99 251.22 285.99 243.1"/>
  <path class="cls-1" d="M331.17,249.83c-1.41,1.1-3.03,1.65-4.86,1.65-1.72,0-3.24-.43-4.57-1.29-1.33-.86-2.36-2.09-3.11-3.68-.75-1.59-1.12-3.49-1.12-5.69s.37-4.03,1.1-5.56c.73-1.54,1.76-2.71,3.07-3.53,1.31-.82,2.83-1.23,4.55-1.23,1.95,0,3.62.56,5.03,1.67,1.41,1.11,2.3,2.76,2.67,4.93h6.35c-.28-2.37-1.07-4.44-2.35-6.2-1.28-1.76-2.93-3.13-4.95-4.1-2.02-.97-4.28-1.46-6.79-1.46-2.23,0-4.27.37-6.13,1.12-1.86.75-3.48,1.82-4.84,3.22-1.37,1.4-2.43,3.04-3.17,4.93-.75,1.89-1.12,3.98-1.12,6.26s.38,4.39,1.14,6.32c.76,1.93,1.83,3.6,3.19,5.01,1.37,1.41,2.98,2.5,4.84,3.28,1.86.78,3.89,1.16,6.09,1.16,2.48,0,4.72-.48,6.73-1.44,2-.96,3.65-2.32,4.95-4.08,1.3-1.76,2.13-3.83,2.5-6.2h-6.43c-.42,2.17-1.34,3.81-2.75,4.91Z"/>
  <polygon class="cls-1" points="370.05 237.86 356.85 237.86 356.85 225.76 350.34 225.76 350.34 256.22 356.85 256.22 356.85 242.85 370.05 242.85 370.05 256.22 376.56 256.22 376.56 225.76 370.05 225.76 370.05 237.86"/>
  <polygon class="cls-1" points="407.95 248.54 396.49 225.76 388.07 225.76 388.07 256.22 394.42 256.22 394.42 233.43 405.88 256.22 414.3 256.22 414.3 225.76 407.95 225.76 407.95 248.54"/>
  <path class="cls-1" d="M447.27,227.28c-2.34-1.3-5.05-1.95-8.12-1.95s-5.7.65-8.06,1.95c-2.36,1.3-4.2,3.11-5.52,5.44-1.33,2.33-1.99,5.04-1.99,8.14,0,2.34.39,4.48,1.16,6.41.78,1.93,1.86,3.6,3.26,4.99,1.4,1.4,3.05,2.48,4.95,3.24,1.9.76,3.98,1.14,6.24,1.14s4.34-.38,6.24-1.14c1.9-.76,3.55-1.84,4.95-3.24,1.4-1.4,2.48-3.06,3.26-4.99.78-1.93,1.16-4.05,1.16-6.37,0-3.1-.67-5.82-2.01-8.16-1.34-2.34-3.18-4.16-5.52-5.46ZM447.04,246.38c-.78,1.59-1.84,2.84-3.19,3.74s-2.92,1.35-4.7,1.35-3.3-.44-4.65-1.33c-1.35-.89-2.41-2.13-3.17-3.72-.76-1.59-1.14-3.46-1.14-5.61s.37-3.94,1.12-5.48c.75-1.54,1.8-2.73,3.15-3.57,1.35-.85,2.92-1.27,4.7-1.27s3.38.42,4.74,1.27c1.35.85,2.41,2.04,3.17,3.59.76,1.55,1.14,3.37,1.14,5.46s-.39,3.97-1.16,5.56Z"/>
  <polygon class="cls-1" points="468.97 225.76 462.46 225.76 462.46 256.22 465.5 256.22 468.97 256.22 483.61 256.22 483.61 251.22 468.97 251.22 468.97 225.76"/>
  <path class="cls-1" d="M511.49,227.28c-2.34-1.3-5.05-1.95-8.12-1.95s-5.7.65-8.06,1.95c-2.36,1.3-4.2,3.11-5.52,5.44-1.33,2.33-1.99,5.04-1.99,8.14,0,2.34.39,4.48,1.16,6.41.78,1.93,1.86,3.6,3.26,4.99,1.4,1.4,3.05,2.48,4.95,3.24,1.9.76,3.98,1.14,6.24,1.14s4.34-.38,6.24-1.14c1.9-.76,3.55-1.84,4.95-3.24,1.4-1.4,2.48-3.06,3.26-4.99.78-1.93,1.16-4.05,1.16-6.37,0-3.1-.67-5.82-2.01-8.16-1.34-2.34-3.18-4.16-5.52-5.46ZM511.26,246.38c-.78,1.59-1.84,2.84-3.19,3.74s-2.92,1.35-4.7,1.35-3.3-.44-4.65-1.33c-1.35-.89-2.41-2.13-3.17-3.72-.76-1.59-1.14-3.46-1.14-5.61s.37-3.94,1.12-5.48,1.8-2.73,3.15-3.57c1.35-.85,2.92-1.27,4.7-1.27s3.38.42,4.74,1.27c1.35.85,2.41,2.04,3.17,3.59.76,1.55,1.14,3.37,1.14,5.46s-.39,3.97-1.16,5.56Z"/>
  <path class="cls-1" d="M542.46,244.54h6.73v4.96c-.6.59-1.38,1.07-2.37,1.42-1.18.42-2.62.63-4.32.63-2.09,0-3.84-.42-5.27-1.25-1.42-.83-2.5-2.04-3.24-3.64-.73-1.59-1.1-3.52-1.1-5.77s.37-4.03,1.1-5.58c.73-1.55,1.76-2.74,3.09-3.57,1.33-.83,2.88-1.25,4.65-1.25,1.92,0,3.52.47,4.8,1.42,1.28.94,2.07,2.25,2.35,3.91h6.52c-.23-2.06-.95-3.87-2.18-5.44-1.23-1.57-2.83-2.8-4.82-3.7-1.99-.9-4.24-1.35-6.75-1.35-3.05,0-5.72.66-8.02,1.99-2.3,1.33-4.1,3.17-5.39,5.52-1.3,2.35-1.95,5.08-1.95,8.19s.64,5.87,1.92,8.21c1.28,2.34,3.11,4.16,5.48,5.46,2.37,1.3,5.2,1.95,8.5,1.95,3.05,0,5.65-.43,7.81-1.29,2.16-.86,4.05-2.11,5.69-3.74v-12.06h-13.24v4.99Z"/>
  <rect class="cls-1" x="566.69" y="225.76" width="6.51" height="30.46"/>
  <polygon class="cls-1" points="593.77 243.1 608.45 243.1 608.45 238.19 593.77 238.19 593.77 230.75 609.42 230.75 609.42 225.76 593.77 225.76 590.3 225.76 587.26 225.76 587.26 256.22 590.3 256.22 593.77 256.22 609.93 256.22 609.93 251.22 593.77 251.22 593.77 243.1"/>
  <path class="cls-1" d="M634.81,238.36l-5.67-1.57c-1.52-.42-2.52-.94-3-1.54-.48-.61-.72-1.28-.72-2.01,0-.96.44-1.72,1.31-2.28.87-.56,2.04-.85,3.51-.85,1.69,0,3.08.35,4.17,1.06,1.09.7,1.77,1.81,2.05,3.3h6.26c-.28-2.76-1.48-4.98-3.6-6.66-2.12-1.68-4.95-2.52-8.5-2.52-2.31,0-4.33.36-6.05,1.08-1.72.72-3.05,1.75-4,3.09-.95,1.34-1.42,2.93-1.42,4.76,0,2.14.67,3.93,2.01,5.35,1.34,1.42,3.46,2.54,6.37,3.36l5.67,1.57c1.38.37,2.35.85,2.92,1.46.56.61.85,1.4.85,2.39,0,1.04-.47,1.88-1.42,2.5-.94.62-2.29.93-4.04.93-2.14,0-3.91-.47-5.29-1.42-1.38-.94-2.17-2.23-2.37-3.87h-6.26c.39,3.22,1.78,5.7,4.15,7.47,2.37,1.76,5.53,2.64,9.48,2.64s6.73-.82,8.84-2.45c2.11-1.64,3.17-3.98,3.17-7.02,0-2.17-.66-3.97-1.97-5.39-1.31-1.42-3.46-2.54-6.45-3.36Z"/>
</svg>